<mxfile host="Electron" modified="2023-11-01T03:50:55.952Z" agent="Mozilla/5.0 (Windows NT 10.0; Win64; x64) AppleWebKit/537.36 (KHTML, like Gecko) draw.io/21.8.2 Chrome/114.0.5735.289 Electron/25.8.1 Safari/537.36" etag="j9msOqMAiALZrs7PkC8y" version="21.8.2" type="device">
  <diagram id="C5RBs43oDa-KdzZeNtuy" name="Page-1">
    <mxGraphModel dx="672" dy="818" grid="1" gridSize="10" guides="1" tooltips="1" connect="1" arrows="1" fold="1" page="1" pageScale="1" pageWidth="827" pageHeight="1169" math="0" shadow="0">
      <root>
        <mxCell id="WIyWlLk6GJQsqaUBKTNV-0" />
        <mxCell id="WIyWlLk6GJQsqaUBKTNV-1" parent="WIyWlLk6GJQsqaUBKTNV-0" />
        <mxCell id="H2POudnv5H8lFqEGyHyy-2" value="" style="edgeStyle=orthogonalEdgeStyle;rounded=0;orthogonalLoop=1;jettySize=auto;html=1;" edge="1" parent="WIyWlLk6GJQsqaUBKTNV-1" source="H2POudnv5H8lFqEGyHyy-0" target="H2POudnv5H8lFqEGyHyy-1">
          <mxGeometry relative="1" as="geometry" />
        </mxCell>
        <mxCell id="H2POudnv5H8lFqEGyHyy-0" value="Start" style="ellipse;whiteSpace=wrap;html=1;" vertex="1" parent="WIyWlLk6GJQsqaUBKTNV-1">
          <mxGeometry x="160" y="110" width="120" height="80" as="geometry" />
        </mxCell>
        <mxCell id="H2POudnv5H8lFqEGyHyy-4" value="" style="edgeStyle=orthogonalEdgeStyle;rounded=0;orthogonalLoop=1;jettySize=auto;html=1;" edge="1" parent="WIyWlLk6GJQsqaUBKTNV-1" source="H2POudnv5H8lFqEGyHyy-1" target="H2POudnv5H8lFqEGyHyy-3">
          <mxGeometry relative="1" as="geometry" />
        </mxCell>
        <mxCell id="H2POudnv5H8lFqEGyHyy-1" value="String[][] akunData, input_no_rek, input_pin&lt;br&gt;int loginattemp, max_login" style="shape=hexagon;perimeter=hexagonPerimeter2;whiteSpace=wrap;html=1;fixedSize=1;" vertex="1" parent="WIyWlLk6GJQsqaUBKTNV-1">
          <mxGeometry x="130" y="220" width="180" height="90" as="geometry" />
        </mxCell>
        <mxCell id="H2POudnv5H8lFqEGyHyy-10" value="" style="edgeStyle=orthogonalEdgeStyle;rounded=0;orthogonalLoop=1;jettySize=auto;html=1;" edge="1" parent="WIyWlLk6GJQsqaUBKTNV-1" source="H2POudnv5H8lFqEGyHyy-3" target="H2POudnv5H8lFqEGyHyy-9">
          <mxGeometry relative="1" as="geometry" />
        </mxCell>
        <mxCell id="H2POudnv5H8lFqEGyHyy-3" value="loginattemp = 0,&lt;br&gt;max_login = 3&lt;br&gt;String [][] akunData = [nasabah][data no_rek, pin, saldo, status]" style="whiteSpace=wrap;html=1;" vertex="1" parent="WIyWlLk6GJQsqaUBKTNV-1">
          <mxGeometry x="130" y="340" width="180" height="70" as="geometry" />
        </mxCell>
        <mxCell id="H2POudnv5H8lFqEGyHyy-14" value="" style="edgeStyle=orthogonalEdgeStyle;rounded=0;orthogonalLoop=1;jettySize=auto;html=1;" edge="1" parent="WIyWlLk6GJQsqaUBKTNV-1" source="H2POudnv5H8lFqEGyHyy-9" target="H2POudnv5H8lFqEGyHyy-13">
          <mxGeometry relative="1" as="geometry" />
        </mxCell>
        <mxCell id="H2POudnv5H8lFqEGyHyy-9" value="" style="ellipse;whiteSpace=wrap;html=1;aspect=fixed;" vertex="1" parent="WIyWlLk6GJQsqaUBKTNV-1">
          <mxGeometry x="195" y="440" width="50" height="50" as="geometry" />
        </mxCell>
        <mxCell id="H2POudnv5H8lFqEGyHyy-16" value="" style="edgeStyle=orthogonalEdgeStyle;rounded=0;orthogonalLoop=1;jettySize=auto;html=1;" edge="1" parent="WIyWlLk6GJQsqaUBKTNV-1" source="H2POudnv5H8lFqEGyHyy-13" target="H2POudnv5H8lFqEGyHyy-15">
          <mxGeometry relative="1" as="geometry" />
        </mxCell>
        <mxCell id="H2POudnv5H8lFqEGyHyy-13" value="loginatemp &amp;lt;= max_login" style="rhombus;whiteSpace=wrap;html=1;" vertex="1" parent="WIyWlLk6GJQsqaUBKTNV-1">
          <mxGeometry x="125" y="530" width="190" height="80" as="geometry" />
        </mxCell>
        <mxCell id="H2POudnv5H8lFqEGyHyy-20" value="" style="edgeStyle=orthogonalEdgeStyle;rounded=0;orthogonalLoop=1;jettySize=auto;html=1;" edge="1" parent="WIyWlLk6GJQsqaUBKTNV-1" source="H2POudnv5H8lFqEGyHyy-15" target="H2POudnv5H8lFqEGyHyy-19">
          <mxGeometry relative="1" as="geometry" />
        </mxCell>
        <mxCell id="H2POudnv5H8lFqEGyHyy-15" value="input_no_rek, input_pin" style="shape=parallelogram;perimeter=parallelogramPerimeter;whiteSpace=wrap;html=1;fixedSize=1;" vertex="1" parent="WIyWlLk6GJQsqaUBKTNV-1">
          <mxGeometry x="145" y="640" width="150" height="70" as="geometry" />
        </mxCell>
        <mxCell id="H2POudnv5H8lFqEGyHyy-22" value="" style="edgeStyle=orthogonalEdgeStyle;rounded=0;orthogonalLoop=1;jettySize=auto;html=1;" edge="1" parent="WIyWlLk6GJQsqaUBKTNV-1" source="H2POudnv5H8lFqEGyHyy-19" target="H2POudnv5H8lFqEGyHyy-21">
          <mxGeometry relative="1" as="geometry" />
        </mxCell>
        <mxCell id="H2POudnv5H8lFqEGyHyy-19" value="i = 0" style="whiteSpace=wrap;html=1;" vertex="1" parent="WIyWlLk6GJQsqaUBKTNV-1">
          <mxGeometry x="170" y="740" width="100" height="50" as="geometry" />
        </mxCell>
        <mxCell id="H2POudnv5H8lFqEGyHyy-24" value="" style="edgeStyle=orthogonalEdgeStyle;rounded=0;orthogonalLoop=1;jettySize=auto;html=1;" edge="1" parent="WIyWlLk6GJQsqaUBKTNV-1" source="H2POudnv5H8lFqEGyHyy-21" target="H2POudnv5H8lFqEGyHyy-23">
          <mxGeometry relative="1" as="geometry" />
        </mxCell>
        <mxCell id="H2POudnv5H8lFqEGyHyy-21" value="i &amp;lt; akundata.length" style="rhombus;whiteSpace=wrap;html=1;" vertex="1" parent="WIyWlLk6GJQsqaUBKTNV-1">
          <mxGeometry x="130" y="820" width="180" height="80" as="geometry" />
        </mxCell>
        <mxCell id="H2POudnv5H8lFqEGyHyy-26" value="" style="edgeStyle=orthogonalEdgeStyle;rounded=0;orthogonalLoop=1;jettySize=auto;html=1;" edge="1" parent="WIyWlLk6GJQsqaUBKTNV-1" source="H2POudnv5H8lFqEGyHyy-23" target="H2POudnv5H8lFqEGyHyy-25">
          <mxGeometry relative="1" as="geometry" />
        </mxCell>
        <mxCell id="H2POudnv5H8lFqEGyHyy-42" value="" style="edgeStyle=orthogonalEdgeStyle;rounded=0;orthogonalLoop=1;jettySize=auto;html=1;" edge="1" parent="WIyWlLk6GJQsqaUBKTNV-1" source="H2POudnv5H8lFqEGyHyy-23" target="H2POudnv5H8lFqEGyHyy-29">
          <mxGeometry relative="1" as="geometry" />
        </mxCell>
        <mxCell id="H2POudnv5H8lFqEGyHyy-23" value="input_no_rek = akunData[i][data no_rek] &amp;amp;&amp;amp; input_pin = akunData[i][data pin]" style="rhombus;whiteSpace=wrap;html=1;" vertex="1" parent="WIyWlLk6GJQsqaUBKTNV-1">
          <mxGeometry x="82.5" y="930" width="275" height="100" as="geometry" />
        </mxCell>
        <mxCell id="H2POudnv5H8lFqEGyHyy-28" value="" style="edgeStyle=orthogonalEdgeStyle;rounded=0;orthogonalLoop=1;jettySize=auto;html=1;" edge="1" parent="WIyWlLk6GJQsqaUBKTNV-1" source="H2POudnv5H8lFqEGyHyy-25">
          <mxGeometry relative="1" as="geometry">
            <mxPoint x="219.9999999999999" y="1160" as="targetPoint" />
          </mxGeometry>
        </mxCell>
        <mxCell id="H2POudnv5H8lFqEGyHyy-25" value="Login sukses" style="shape=parallelogram;perimeter=parallelogramPerimeter;whiteSpace=wrap;html=1;fixedSize=1;" vertex="1" parent="WIyWlLk6GJQsqaUBKTNV-1">
          <mxGeometry x="140" y="1070" width="160" height="60" as="geometry" />
        </mxCell>
        <mxCell id="H2POudnv5H8lFqEGyHyy-43" value="" style="edgeStyle=orthogonalEdgeStyle;rounded=0;orthogonalLoop=1;jettySize=auto;html=1;" edge="1" parent="WIyWlLk6GJQsqaUBKTNV-1" source="H2POudnv5H8lFqEGyHyy-29" target="H2POudnv5H8lFqEGyHyy-37">
          <mxGeometry relative="1" as="geometry" />
        </mxCell>
        <mxCell id="H2POudnv5H8lFqEGyHyy-45" style="edgeStyle=orthogonalEdgeStyle;rounded=0;orthogonalLoop=1;jettySize=auto;html=1;entryX=1;entryY=0.5;entryDx=0;entryDy=0;" edge="1" parent="WIyWlLk6GJQsqaUBKTNV-1" source="H2POudnv5H8lFqEGyHyy-29" target="H2POudnv5H8lFqEGyHyy-21">
          <mxGeometry relative="1" as="geometry">
            <Array as="points">
              <mxPoint x="438" y="860" />
            </Array>
          </mxGeometry>
        </mxCell>
        <mxCell id="H2POudnv5H8lFqEGyHyy-29" value="i++" style="whiteSpace=wrap;html=1;" vertex="1" parent="WIyWlLk6GJQsqaUBKTNV-1">
          <mxGeometry x="390" y="955" width="96" height="50" as="geometry" />
        </mxCell>
        <mxCell id="H2POudnv5H8lFqEGyHyy-32" value="Gagal login" style="shape=parallelogram;perimeter=parallelogramPerimeter;whiteSpace=wrap;html=1;fixedSize=1;" vertex="1" parent="WIyWlLk6GJQsqaUBKTNV-1">
          <mxGeometry x="650" y="950" width="120" height="60" as="geometry" />
        </mxCell>
        <mxCell id="H2POudnv5H8lFqEGyHyy-44" value="" style="edgeStyle=orthogonalEdgeStyle;rounded=0;orthogonalLoop=1;jettySize=auto;html=1;" edge="1" parent="WIyWlLk6GJQsqaUBKTNV-1" source="H2POudnv5H8lFqEGyHyy-37" target="H2POudnv5H8lFqEGyHyy-32">
          <mxGeometry relative="1" as="geometry" />
        </mxCell>
        <mxCell id="H2POudnv5H8lFqEGyHyy-47" style="edgeStyle=orthogonalEdgeStyle;rounded=0;orthogonalLoop=1;jettySize=auto;html=1;entryX=1;entryY=0.5;entryDx=0;entryDy=0;" edge="1" parent="WIyWlLk6GJQsqaUBKTNV-1" source="H2POudnv5H8lFqEGyHyy-37" target="H2POudnv5H8lFqEGyHyy-13">
          <mxGeometry relative="1" as="geometry">
            <Array as="points">
              <mxPoint x="570" y="570" />
            </Array>
          </mxGeometry>
        </mxCell>
        <mxCell id="H2POudnv5H8lFqEGyHyy-37" value="loginattemp++" style="whiteSpace=wrap;html=1;" vertex="1" parent="WIyWlLk6GJQsqaUBKTNV-1">
          <mxGeometry x="520" y="955" width="96" height="50" as="geometry" />
        </mxCell>
      </root>
    </mxGraphModel>
  </diagram>
</mxfile>
